<mxfile host="app.diagrams.net" modified="2023-08-30T19:09:15.278Z" agent="Mozilla/5.0 (Windows NT 10.0; Win64; x64) AppleWebKit/537.36 (KHTML, like Gecko) Chrome/116.0.0.0 Safari/537.36" etag="VAwrs1JD78V2SxR2T0ZN" version="21.7.1" type="device">
  <diagram id="Xlj5DF5VULxRk2sPXJ0F" name="Страница 1">
    <mxGraphModel dx="913" dy="464" grid="1" gridSize="10" guides="1" tooltips="1" connect="1" arrows="1" fold="1" page="1" pageScale="1" pageWidth="1169" pageHeight="827" math="0" shadow="0">
      <root>
        <mxCell id="0" />
        <mxCell id="1" parent="0" />
        <mxCell id="myKoFF5S-wWV8nHS5m7I-2" value="&lt;h1 style=&quot;text-align: center; line-height: 120%;&quot;&gt;Builder&amp;nbsp;&lt;br&gt;&lt;/h1&gt;&lt;p style=&quot;text-align: center; line-height: 120%;&quot;&gt;&lt;font style=&quot;font-size: 16px;&quot;&gt;&lt;b&gt;Диаграмма классов паттерна &quot;Cтроитель&quot;&lt;/b&gt;&lt;/font&gt;&lt;/p&gt;&lt;p style=&quot;text-align: center; line-height: 120%;&quot;&gt;&lt;span style=&quot;font-size: 13px; background-color: rgb(255, 255, 255); color: rgb(51, 51, 51); font-family: -apple-system, BlinkMacSystemFont, Arial, sans-serif; text-align: left;&quot;&gt;Паттерн полезен для создания разных иммутабельных объектов с помощью одного и того же процесса построения объекта.&lt;/span&gt;&lt;/p&gt;" style="text;html=1;strokeColor=none;fillColor=none;spacing=5;spacingTop=-20;whiteSpace=wrap;overflow=hidden;rounded=0;fontStyle=4;verticalAlign=middle;horizontal=1;" vertex="1" parent="1">
          <mxGeometry x="145.5" y="40" width="850" height="110" as="geometry" />
        </mxCell>
        <mxCell id="myKoFF5S-wWV8nHS5m7I-3" value="&lt;font style=&quot;font-size: 13px;&quot;&gt;Паттерн Builder — это паттерн проектирования, который позволяет поэтапно создавать сложные объекты с помощью четко определенной последовательности действий. &lt;br&gt;Строительство контролируется объектом-распорядителем (director), которому нужно знать только тип создаваемого объекта.&lt;/font&gt;" style="text;html=1;align=center;verticalAlign=middle;resizable=0;points=[];autosize=1;strokeColor=none;fillColor=none;" vertex="1" parent="1">
          <mxGeometry x="45.5" y="150" width="1050" height="40" as="geometry" />
        </mxCell>
        <mxCell id="myKoFF5S-wWV8nHS5m7I-4" value="Director" style="swimlane;fontStyle=1;align=center;verticalAlign=top;childLayout=stackLayout;horizontal=1;startSize=26;horizontalStack=0;resizeParent=1;resizeParentMax=0;resizeLast=0;collapsible=1;marginBottom=0;whiteSpace=wrap;html=1;" vertex="1" parent="1">
          <mxGeometry x="280" y="254" width="160" height="86" as="geometry" />
        </mxCell>
        <mxCell id="myKoFF5S-wWV8nHS5m7I-5" value="- builder: Builder" style="text;strokeColor=none;fillColor=none;align=left;verticalAlign=top;spacingLeft=4;spacingRight=4;overflow=hidden;rotatable=0;points=[[0,0.5],[1,0.5]];portConstraint=eastwest;whiteSpace=wrap;html=1;" vertex="1" parent="myKoFF5S-wWV8nHS5m7I-4">
          <mxGeometry y="26" width="160" height="26" as="geometry" />
        </mxCell>
        <mxCell id="myKoFF5S-wWV8nHS5m7I-6" value="" style="line;strokeWidth=1;fillColor=none;align=left;verticalAlign=middle;spacingTop=-1;spacingLeft=3;spacingRight=3;rotatable=0;labelPosition=right;points=[];portConstraint=eastwest;strokeColor=inherit;" vertex="1" parent="myKoFF5S-wWV8nHS5m7I-4">
          <mxGeometry y="52" width="160" height="8" as="geometry" />
        </mxCell>
        <mxCell id="myKoFF5S-wWV8nHS5m7I-7" value="+ Construct(): void" style="text;strokeColor=none;fillColor=none;align=left;verticalAlign=top;spacingLeft=4;spacingRight=4;overflow=hidden;rotatable=0;points=[[0,0.5],[1,0.5]];portConstraint=eastwest;whiteSpace=wrap;html=1;" vertex="1" parent="myKoFF5S-wWV8nHS5m7I-4">
          <mxGeometry y="60" width="160" height="26" as="geometry" />
        </mxCell>
        <mxCell id="myKoFF5S-wWV8nHS5m7I-9" value="&lt;p style=&quot;margin:0px;margin-top:4px;text-align:center;&quot;&gt;&lt;i&gt;&amp;lt;&amp;lt;Interface&amp;gt;&amp;gt;&lt;/i&gt;&lt;br&gt;&lt;b&gt;Builder&lt;/b&gt;&lt;/p&gt;&lt;hr size=&quot;1&quot;&gt;&lt;p style=&quot;margin:0px;margin-left:4px;&quot;&gt;+ buildPart1(): void&lt;br&gt;+ buildPart2(): void&lt;/p&gt;" style="verticalAlign=top;align=left;overflow=fill;fontSize=12;fontFamily=Helvetica;html=1;whiteSpace=wrap;" vertex="1" parent="1">
          <mxGeometry x="521" y="254" width="139" height="90" as="geometry" />
        </mxCell>
        <mxCell id="myKoFF5S-wWV8nHS5m7I-16" value="" style="endArrow=diamondThin;endFill=0;endSize=24;html=1;rounded=0;entryX=1.003;entryY=0.711;entryDx=0;entryDy=0;entryPerimeter=0;" edge="1" parent="1" target="myKoFF5S-wWV8nHS5m7I-5">
          <mxGeometry width="160" relative="1" as="geometry">
            <mxPoint x="520" y="298" as="sourcePoint" />
            <mxPoint x="440" y="297" as="targetPoint" />
            <Array as="points">
              <mxPoint x="500" y="298" />
              <mxPoint x="490" y="298" />
            </Array>
          </mxGeometry>
        </mxCell>
        <mxCell id="myKoFF5S-wWV8nHS5m7I-21" value="" style="endArrow=block;dashed=1;endFill=0;endSize=12;html=1;rounded=0;exitX=-0.024;exitY=0.299;exitDx=0;exitDy=0;exitPerimeter=0;entryX=1.008;entryY=0.526;entryDx=0;entryDy=0;entryPerimeter=0;" edge="1" parent="1" source="myKoFF5S-wWV8nHS5m7I-40" target="myKoFF5S-wWV8nHS5m7I-9">
          <mxGeometry width="160" relative="1" as="geometry">
            <mxPoint x="719.6799999999998" y="278.5400000000001" as="sourcePoint" />
            <mxPoint x="690" y="234" as="targetPoint" />
          </mxGeometry>
        </mxCell>
        <mxCell id="myKoFF5S-wWV8nHS5m7I-28" value="Product&lt;br&gt;" style="swimlane;fontStyle=1;align=center;verticalAlign=top;childLayout=stackLayout;horizontal=1;startSize=26;horizontalStack=0;resizeParent=1;resizeParentMax=0;resizeLast=0;collapsible=1;marginBottom=0;whiteSpace=wrap;html=1;" vertex="1" parent="1">
          <mxGeometry x="720" y="394" width="160" height="86" as="geometry">
            <mxRectangle x="700" y="440" width="90" height="30" as="alternateBounds" />
          </mxGeometry>
        </mxCell>
        <mxCell id="myKoFF5S-wWV8nHS5m7I-29" value="+ field: type" style="text;strokeColor=none;fillColor=none;align=left;verticalAlign=top;spacingLeft=4;spacingRight=4;overflow=hidden;rotatable=0;points=[[0,0.5],[1,0.5]];portConstraint=eastwest;whiteSpace=wrap;html=1;" vertex="1" parent="myKoFF5S-wWV8nHS5m7I-28">
          <mxGeometry y="26" width="160" height="26" as="geometry" />
        </mxCell>
        <mxCell id="myKoFF5S-wWV8nHS5m7I-30" value="" style="line;strokeWidth=1;fillColor=none;align=left;verticalAlign=middle;spacingTop=-1;spacingLeft=3;spacingRight=3;rotatable=0;labelPosition=right;points=[];portConstraint=eastwest;strokeColor=inherit;" vertex="1" parent="myKoFF5S-wWV8nHS5m7I-28">
          <mxGeometry y="52" width="160" height="8" as="geometry" />
        </mxCell>
        <mxCell id="myKoFF5S-wWV8nHS5m7I-31" value="+ method(type): type" style="text;strokeColor=none;fillColor=none;align=left;verticalAlign=top;spacingLeft=4;spacingRight=4;overflow=hidden;rotatable=0;points=[[0,0.5],[1,0.5]];portConstraint=eastwest;whiteSpace=wrap;html=1;" vertex="1" parent="myKoFF5S-wWV8nHS5m7I-28">
          <mxGeometry y="60" width="160" height="26" as="geometry" />
        </mxCell>
        <mxCell id="myKoFF5S-wWV8nHS5m7I-32" value="Use" style="endArrow=open;endSize=12;dashed=1;html=1;rounded=0;exitX=0.494;exitY=1.096;exitDx=0;exitDy=0;exitPerimeter=0;entryX=0.5;entryY=0;entryDx=0;entryDy=0;" edge="1" parent="1" target="myKoFF5S-wWV8nHS5m7I-28">
          <mxGeometry width="160" relative="1" as="geometry">
            <mxPoint x="799.04" y="349.76" as="sourcePoint" />
            <mxPoint x="700" y="384" as="targetPoint" />
          </mxGeometry>
        </mxCell>
        <mxCell id="myKoFF5S-wWV8nHS5m7I-33" value="Construct() {&lt;br&gt;this.builder.buildPart1();&lt;br&gt;this.builder.buildPart2();&lt;br&gt;}" style="shape=note;whiteSpace=wrap;html=1;backgroundOutline=1;darkOpacity=0.05;" vertex="1" parent="1">
          <mxGeometry x="50" y="364" width="210" height="70" as="geometry" />
        </mxCell>
        <mxCell id="myKoFF5S-wWV8nHS5m7I-35" value="" style="endArrow=none;html=1;rounded=0;exitX=0.5;exitY=0;exitDx=0;exitDy=0;exitPerimeter=0;entryX=0;entryY=0.5;entryDx=0;entryDy=0;" edge="1" parent="1" source="myKoFF5S-wWV8nHS5m7I-33" target="myKoFF5S-wWV8nHS5m7I-7">
          <mxGeometry width="50" height="50" relative="1" as="geometry">
            <mxPoint x="390" y="404" as="sourcePoint" />
            <mxPoint x="440" y="354" as="targetPoint" />
            <Array as="points">
              <mxPoint x="155" y="327" />
            </Array>
          </mxGeometry>
        </mxCell>
        <mxCell id="myKoFF5S-wWV8nHS5m7I-38" value="&lt;b&gt;ConcreteBuilder&lt;/b&gt;" style="swimlane;fontStyle=0;childLayout=stackLayout;horizontal=1;startSize=26;fillColor=none;horizontalStack=0;resizeParent=1;resizeParentMax=0;resizeLast=0;collapsible=1;marginBottom=0;whiteSpace=wrap;html=1;" vertex="1" parent="1">
          <mxGeometry x="730" y="240" width="140" height="104" as="geometry" />
        </mxCell>
        <mxCell id="myKoFF5S-wWV8nHS5m7I-39" value="+ buildPart1(): void" style="text;strokeColor=none;fillColor=none;align=left;verticalAlign=top;spacingLeft=4;spacingRight=4;overflow=hidden;rotatable=0;points=[[0,0.5],[1,0.5]];portConstraint=eastwest;whiteSpace=wrap;html=1;" vertex="1" parent="myKoFF5S-wWV8nHS5m7I-38">
          <mxGeometry y="26" width="140" height="26" as="geometry" />
        </mxCell>
        <mxCell id="myKoFF5S-wWV8nHS5m7I-40" value="+ buildPart2(): void" style="text;strokeColor=none;fillColor=none;align=left;verticalAlign=top;spacingLeft=4;spacingRight=4;overflow=hidden;rotatable=0;points=[[0,0.5],[1,0.5]];portConstraint=eastwest;whiteSpace=wrap;html=1;" vertex="1" parent="myKoFF5S-wWV8nHS5m7I-38">
          <mxGeometry y="52" width="140" height="26" as="geometry" />
        </mxCell>
        <mxCell id="myKoFF5S-wWV8nHS5m7I-41" value="+ getResult(): Product" style="text;strokeColor=none;fillColor=none;align=left;verticalAlign=top;spacingLeft=4;spacingRight=4;overflow=hidden;rotatable=0;points=[[0,0.5],[1,0.5]];portConstraint=eastwest;whiteSpace=wrap;html=1;" vertex="1" parent="myKoFF5S-wWV8nHS5m7I-38">
          <mxGeometry y="78" width="140" height="26" as="geometry" />
        </mxCell>
        <mxCell id="myKoFF5S-wWV8nHS5m7I-42" value="&lt;ul style=&quot;transition: opacity 0.2s ease-in-out 0s, color 0.2s ease-in-out 0s, text-decoration 0.2s ease-in-out 0s, background-color 0.2s ease-in-out 0s, -webkit-text-decoration 0.2s ease-in-out 0s; quotes: &amp;quot;«&amp;quot; &amp;quot;»&amp;quot;; padding-inline-start: 32px; margin-top: 32px; color: rgb(51, 51, 51); font-family: -apple-system, BlinkMacSystemFont, Arial, sans-serif; font-size: 11px; text-align: start; background-color: rgb(255, 255, 255); line-height: 0%;&quot;&gt;&lt;li style=&quot;transition: opacity 0.2s ease-in-out 0s, color 0.2s ease-in-out 0s, text-decoration 0.2s ease-in-out 0s, background-color 0.2s ease-in-out 0s, -webkit-text-decoration 0.2s ease-in-out 0s; quotes: &amp;quot;«&amp;quot; &amp;quot;»&amp;quot;; line-height: 1.5rem; margin: 0px; padding: 0px; font-size: 11px;&quot;&gt;&lt;p style=&quot;transition: opacity 0.2s ease-in-out 0s, color 0.2s ease-in-out 0s, text-decoration 0.2s ease-in-out 0s, background-color 0.2s ease-in-out 0s, -webkit-text-decoration 0.2s ease-in-out 0s; quotes: &amp;quot;«&amp;quot; &amp;quot;»&amp;quot;; margin: 0px; padding: 0px; font-size: 11px; line-height: 0%;&quot;&gt;&lt;b&gt;Product (продукт)&lt;/b&gt;&amp;nbsp;- Класс, который определяет сложный объект, который мы пытаемся шаг за шагом сконструировать, используя простые объекты.&lt;/p&gt;&lt;/li&gt;&lt;/ul&gt;&lt;ul style=&quot;transition: opacity 0.2s ease-in-out 0s, color 0.2s ease-in-out 0s, text-decoration 0.2s ease-in-out 0s, background-color 0.2s ease-in-out 0s, -webkit-text-decoration 0.2s ease-in-out 0s; quotes: &amp;quot;«&amp;quot; &amp;quot;»&amp;quot;; padding-inline-start: 32px; margin-top: 32px; color: rgb(51, 51, 51); font-family: -apple-system, BlinkMacSystemFont, Arial, sans-serif; font-size: 11px; text-align: start; background-color: rgb(255, 255, 255); line-height: 0%;&quot;&gt;&lt;li style=&quot;transition: opacity 0.2s ease-in-out 0s, color 0.2s ease-in-out 0s, text-decoration 0.2s ease-in-out 0s, background-color 0.2s ease-in-out 0s, -webkit-text-decoration 0.2s ease-in-out 0s; quotes: &amp;quot;«&amp;quot; &amp;quot;»&amp;quot;; line-height: 1.5rem; margin: 0px; padding: 0px; font-size: 11px;&quot;&gt;&lt;p style=&quot;transition: opacity 0.2s ease-in-out 0s, color 0.2s ease-in-out 0s, text-decoration 0.2s ease-in-out 0s, background-color 0.2s ease-in-out 0s, -webkit-text-decoration 0.2s ease-in-out 0s; quotes: &amp;quot;«&amp;quot; &amp;quot;»&amp;quot;; margin: 0px; padding: 0px; font-size: 11px; line-height: 0%;&quot;&gt;&lt;span style=&quot;transition: opacity 0.2s ease-in-out 0s, color 0.2s ease-in-out 0s, text-decoration 0.2s ease-in-out 0s, background-color 0.2s ease-in-out 0s, -webkit-text-decoration 0.2s ease-in-out 0s; font-weight: bolder; quotes: &amp;quot;«&amp;quot; &amp;quot;»&amp;quot;; -webkit-font-smoothing: antialiased; font-size: 11px;&quot;&gt;Builder (строитель)&lt;/span&gt;&amp;nbsp;- абстрактный класс/интерфейс, который определяет все этапы, необходимые для производства сложного объекта-&lt;span style=&quot;transition: opacity 0.2s ease-in-out 0s, color 0.2s ease-in-out 0s, text-decoration 0.2s ease-in-out 0s, background-color 0.2s ease-in-out 0s, -webkit-text-decoration 0.2s ease-in-out 0s; font-weight: bolder; quotes: &amp;quot;«&amp;quot; &amp;quot;»&amp;quot;; -webkit-font-smoothing: antialiased; font-size: 11px;&quot;&gt;продукта&lt;/span&gt;.&amp;nbsp;&lt;/p&gt;&lt;/li&gt;&lt;li style=&quot;transition: opacity 0.2s ease-in-out 0s, color 0.2s ease-in-out 0s, text-decoration 0.2s ease-in-out 0s, background-color 0.2s ease-in-out 0s, -webkit-text-decoration 0.2s ease-in-out 0s; quotes: &amp;quot;«&amp;quot; &amp;quot;»&amp;quot;; line-height: 1.5rem; margin: 0px; padding: 0px; font-size: 11px;&quot;&gt;&lt;p style=&quot;transition: opacity 0.2s ease-in-out 0s, color 0.2s ease-in-out 0s, text-decoration 0.2s ease-in-out 0s, background-color 0.2s ease-in-out 0s, -webkit-text-decoration 0.2s ease-in-out 0s; quotes: &amp;quot;«&amp;quot; &amp;quot;»&amp;quot;; margin: 0px; padding: 0px; font-size: 11px; line-height: 1.5rem;&quot;&gt;&lt;span style=&quot;font-size: 11px;&quot;&gt;Как правило, здесь объявляются (абстрактно) все этапы (buildPart), а их реализация относится к классам конкретных строителей (ConcreteBuilder).&lt;/span&gt;&lt;/p&gt;&lt;/li&gt;&lt;/ul&gt;&lt;ul style=&quot;transition: opacity 0.2s ease-in-out 0s, color 0.2s ease-in-out 0s, text-decoration 0.2s ease-in-out 0s, background-color 0.2s ease-in-out 0s, -webkit-text-decoration 0.2s ease-in-out 0s; quotes: &amp;quot;«&amp;quot; &amp;quot;»&amp;quot;; padding-inline-start: 32px; margin-top: 32px; color: rgb(51, 51, 51); font-family: -apple-system, BlinkMacSystemFont, Arial, sans-serif; font-size: 11px; text-align: start; background-color: rgb(255, 255, 255); line-height: 100%;&quot;&gt;&lt;li style=&quot;transition: opacity 0.2s ease-in-out 0s, color 0.2s ease-in-out 0s, text-decoration 0.2s ease-in-out 0s, background-color 0.2s ease-in-out 0s, -webkit-text-decoration 0.2s ease-in-out 0s; quotes: &amp;quot;«&amp;quot; &amp;quot;»&amp;quot;; line-height: 1.5rem; margin: 0px; padding: 0px; font-size: 11px;&quot;&gt;&lt;p style=&quot;transition: opacity 0.2s ease-in-out 0s, color 0.2s ease-in-out 0s, text-decoration 0.2s ease-in-out 0s, background-color 0.2s ease-in-out 0s, -webkit-text-decoration 0.2s ease-in-out 0s; quotes: &amp;quot;«&amp;quot; &amp;quot;»&amp;quot;; margin: 0px; padding: 0px; font-size: 11px; line-height: 100%;&quot;&gt;&lt;span style=&quot;transition: opacity 0.2s ease-in-out 0s, color 0.2s ease-in-out 0s, text-decoration 0.2s ease-in-out 0s, background-color 0.2s ease-in-out 0s, -webkit-text-decoration 0.2s ease-in-out 0s; font-weight: bolder; quotes: &amp;quot;«&amp;quot; &amp;quot;»&amp;quot;; -webkit-font-smoothing: antialiased; font-size: 11px;&quot;&gt;ConcreteBuilder (конкретный строитель)&lt;/span&gt;&amp;nbsp;- класс-строитель, который предоставляет фактический код для создания объекта-&lt;span style=&quot;transition: opacity 0.2s ease-in-out 0s, color 0.2s ease-in-out 0s, text-decoration 0.2s ease-in-out 0s, background-color 0.2s ease-in-out 0s, -webkit-text-decoration 0.2s ease-in-out 0s; font-weight: bolder; quotes: &amp;quot;«&amp;quot; &amp;quot;»&amp;quot;; -webkit-font-smoothing: antialiased; font-size: 11px;&quot;&gt;продукта&lt;/span&gt;.&amp;nbsp;&lt;/p&gt;&lt;/li&gt;&lt;li style=&quot;transition: opacity 0.2s ease-in-out 0s, color 0.2s ease-in-out 0s, text-decoration 0.2s ease-in-out 0s, background-color 0.2s ease-in-out 0s, -webkit-text-decoration 0.2s ease-in-out 0s; quotes: &amp;quot;«&amp;quot; &amp;quot;»&amp;quot;; line-height: 1.5rem; margin: 0px; padding: 0px; font-size: 11px;&quot;&gt;&lt;p style=&quot;transition: opacity 0.2s ease-in-out 0s, color 0.2s ease-in-out 0s, text-decoration 0.2s ease-in-out 0s, background-color 0.2s ease-in-out 0s, -webkit-text-decoration 0.2s ease-in-out 0s; quotes: &amp;quot;«&amp;quot; &amp;quot;»&amp;quot;; margin: 0px; padding: 0px; font-size: 11px; line-height: 100%;&quot;&gt;У нас может быть несколько разных&amp;nbsp;&lt;span style=&quot;transition: opacity 0.2s ease-in-out 0s, color 0.2s ease-in-out 0s, text-decoration 0.2s ease-in-out 0s, background-color 0.2s ease-in-out 0s, -webkit-text-decoration 0.2s ease-in-out 0s; font-weight: bolder; quotes: &amp;quot;«&amp;quot; &amp;quot;»&amp;quot;; -webkit-font-smoothing: antialiased; font-size: 11px;&quot;&gt;ConcreteBuilder&lt;/span&gt;-классов, каждый из которых реализует различную разновидность или способ создания объекта-&lt;span style=&quot;transition: opacity 0.2s ease-in-out 0s, color 0.2s ease-in-out 0s, text-decoration 0.2s ease-in-out 0s, background-color 0.2s ease-in-out 0s, -webkit-text-decoration 0.2s ease-in-out 0s; font-weight: bolder; quotes: &amp;quot;«&amp;quot; &amp;quot;»&amp;quot;; -webkit-font-smoothing: antialiased; font-size: 11px;&quot;&gt;продукта&lt;/span&gt;.&lt;/p&gt;&lt;/li&gt;&lt;/ul&gt;&lt;ul style=&quot;transition: opacity 0.2s ease-in-out 0s, color 0.2s ease-in-out 0s, text-decoration 0.2s ease-in-out 0s, background-color 0.2s ease-in-out 0s, -webkit-text-decoration 0.2s ease-in-out 0s; quotes: &amp;quot;«&amp;quot; &amp;quot;»&amp;quot;; padding-inline-start: 32px; margin-top: 32px; color: rgb(51, 51, 51); font-family: -apple-system, BlinkMacSystemFont, Arial, sans-serif; font-size: 11px; text-align: start; background-color: rgb(255, 255, 255);&quot;&gt;&lt;li style=&quot;transition: opacity 0.2s ease-in-out 0s, color 0.2s ease-in-out 0s, text-decoration 0.2s ease-in-out 0s, background-color 0.2s ease-in-out 0s, -webkit-text-decoration 0.2s ease-in-out 0s; quotes: &amp;quot;«&amp;quot; &amp;quot;»&amp;quot;; line-height: 1.5rem; margin: 0px; padding: 0px; font-size: 11px;&quot;&gt;&lt;p style=&quot;transition: opacity 0.2s ease-in-out 0s, color 0.2s ease-in-out 0s, text-decoration 0.2s ease-in-out 0s, background-color 0.2s ease-in-out 0s, -webkit-text-decoration 0.2s ease-in-out 0s; quotes: &amp;quot;«&amp;quot; &amp;quot;»&amp;quot;; margin: 0px; padding: 0px; font-size: 11px; line-height: 1.5rem;&quot;&gt;&lt;span style=&quot;transition: opacity 0.2s ease-in-out 0s, color 0.2s ease-in-out 0s, text-decoration 0.2s ease-in-out 0s, background-color 0.2s ease-in-out 0s, -webkit-text-decoration 0.2s ease-in-out 0s; font-weight: bolder; quotes: &amp;quot;«&amp;quot; &amp;quot;»&amp;quot;; -webkit-font-smoothing: antialiased; font-size: 11px;&quot;&gt;Director (распорядитель)&lt;/span&gt;&amp;nbsp;- супервизионный класс, под конролем котрого строитель выполняет скоординированные этапы для создания объекта-продукта.&amp;nbsp;&lt;/p&gt;&lt;/li&gt;&lt;li style=&quot;transition: opacity 0.2s ease-in-out 0s, color 0.2s ease-in-out 0s, text-decoration 0.2s ease-in-out 0s, background-color 0.2s ease-in-out 0s, -webkit-text-decoration 0.2s ease-in-out 0s; quotes: &amp;quot;«&amp;quot; &amp;quot;»&amp;quot;; line-height: 1.5rem; margin: 0px; padding: 0px; font-size: 11px;&quot;&gt;&lt;p style=&quot;transition: opacity 0.2s ease-in-out 0s, color 0.2s ease-in-out 0s, text-decoration 0.2s ease-in-out 0s, background-color 0.2s ease-in-out 0s, -webkit-text-decoration 0.2s ease-in-out 0s; quotes: &amp;quot;«&amp;quot; &amp;quot;»&amp;quot;; margin: 0px; padding: 0px; font-size: 11px; line-height: 1.5rem;&quot;&gt;Распорядитель обычно получает на вход строителя с этапами на выполнение в четком порядке для построения объекта-продукта.&lt;/p&gt;&lt;/li&gt;&lt;/ul&gt;" style="text;html=1;align=center;verticalAlign=middle;resizable=0;points=[];autosize=1;strokeColor=none;fillColor=none;fontSize=11;" vertex="1" parent="1">
          <mxGeometry y="530" width="880" height="280" as="geometry" />
        </mxCell>
      </root>
    </mxGraphModel>
  </diagram>
</mxfile>
